<svg version="1.1" id="Layer_1" xmlns="http://www.w3.org/2000/svg" xmlns:xlink="http://www.w3.org/1999/xlink" x="0px" y="0px"
	 width="100%" viewBox="0 0 1024 1024" enable-background="new 0 0 1024 1024" xml:space="preserve">
<path fill="#000000" opacity="1.000000" stroke="none" 
	d="
M811.404358,531.256226 
	C798.969666,555.871643 779.889404,564.619324 753.869385,557.915405 
	C739.840271,554.300903 727.128967,547.931824 715.201416,539.783752 
	C706.018250,533.510376 698.009827,526.127991 691.671753,516.951416 
	C690.680237,515.515869 689.769470,513.750366 687.640991,513.558655 
	C685.606812,514.562073 686.259827,516.423096 686.218384,517.973633 
	C685.536804,543.450256 685.211060,568.941040 684.155396,594.401733 
	C682.822937,626.538086 679.805237,658.490234 671.240112,689.683167 
	C664.942627,712.617981 655.649963,733.635681 635.666443,748.253540 
	C621.417786,758.676392 605.083618,763.406860 587.976746,766.146912 
	C568.825623,769.214478 549.538757,769.793152 530.194275,769.297913 
	C529.563904,769.281799 528.939331,769.039062 528.087097,768.852844 
	C528.893921,766.227966 531.245239,766.391357 532.936279,765.777161 
	C556.880859,757.080750 581.176514,749.350464 604.775940,739.706055 
	C611.605347,736.914978 617.895203,733.178284 623.321228,728.126099 
	C624.611084,726.925110 626.202820,725.868347 626.722717,723.382751 
	C590.904053,729.344910 555.339539,730.162109 519.581116,723.833130 
	C520.258606,720.473145 522.160339,720.801697 523.713318,720.716309 
	C541.998291,719.709839 560.283081,718.696228 578.572510,717.776428 
	C594.373718,716.981750 610.184753,716.380737 625.983826,715.548218 
	C635.584839,715.042297 639.046082,711.879028 640.752441,702.060974 
	C611.333191,704.411072 582.106445,704.563904 552.776184,699.207458 
	C553.918823,696.871826 555.370422,697.191406 556.640625,697.188843 
	C578.790955,697.143372 600.941284,697.089661 623.091553,697.115234 
	C627.582825,697.120422 632.109863,697.147644 636.555664,697.693115 
	C642.085266,698.371399 644.611084,695.846436 645.322876,690.749451 
	C645.593201,688.813904 646.468445,686.920593 645.633545,684.295715 
	C627.068298,684.480225 608.339478,684.590332 588.801025,681.464905 
	C591.451050,679.061035 593.349609,679.719910 595.075012,679.701782 
	C610.738464,679.536926 626.387268,680.090088 642.035339,680.712524 
	C643.931824,680.787964 646.588135,681.503174 647.319641,679.100464 
	C648.460571,675.352783 650.238037,671.490540 649.146606,667.497803 
	C648.636902,665.633057 646.262939,666.302979 644.672546,666.280212 
	C635.342407,666.146362 626.010986,666.105469 616.680786,665.973022 
	C614.950378,665.948486 612.930725,666.553101 611.772034,664.387695 
	C612.536438,661.801636 614.708496,662.719482 616.319397,662.716431 
	C625.983704,662.698059 635.651489,662.671143 645.311096,662.920837 
	C649.493286,663.028870 651.109436,661.392761 651.765137,657.273499 
	C658.650879,614.014771 660.000000,570.480042 658.678467,526.793213 
	C657.359009,483.175629 655.987549,439.564484 655.432068,395.921356 
	C655.088623,368.936340 654.930115,341.950195 654.661926,314.964996 
	C654.597412,308.476685 655.723083,307.406281 661.996399,306.932068 
	C666.472229,306.593750 670.963501,306.288452 675.398926,305.635712 
	C679.710876,305.001190 681.555176,306.818359 681.961304,310.923126 
	C682.665466,318.039307 683.529663,325.139526 684.299805,332.249390 
	C684.513855,334.225220 684.610352,336.218994 686.304688,338.006134 
	C689.542786,336.112244 691.329956,332.853943 693.700134,330.216949 
	C702.896667,319.985321 713.474792,312.087708 727.059509,308.429718 
	C739.110657,305.184723 750.501526,306.702301 761.584839,311.798004 
	C774.537659,317.753204 786.225647,325.645447 796.918274,335.090302 
	C810.889282,347.431000 817.956909,363.204865 820.051086,381.367767 
	C823.162903,408.357697 824.960022,435.436798 824.177612,462.626373 
	C823.504211,486.026764 821.464111,509.202332 811.404358,531.256226 
M740.812744,353.619049 
	C728.492493,352.462189 719.959534,357.577911 714.520691,369.805573 
	C709.323181,381.490540 707.172241,393.896637 706.167786,406.591339 
	C705.260559,418.057343 705.605347,429.530518 705.624451,440.991058 
	C705.640503,450.583557 705.631836,460.251587 710.173340,469.271973 
	C720.535522,489.853668 736.624023,502.623596 759.532410,506.483429 
	C768.986084,508.076294 774.813599,505.181091 778.969910,496.440399 
	C780.177063,493.901794 781.232361,491.220490 781.866028,488.490540 
	C788.505432,459.887238 791.471191,431.023529 785.501343,401.978699 
	C780.469666,377.498566 767.572632,359.559204 740.812744,353.619049 
z"/>
<path fill="#000000" opacity="1.000000" stroke="none" 
	d="
M343.266418,404.145111 
	C339.416779,429.764099 336.441864,455.042328 334.085510,480.406494 
	C330.229858,521.909607 328.182312,563.475708 329.400452,605.151489 
	C330.115295,629.607483 330.916901,654.091736 336.309021,678.117859 
	C338.867554,689.518127 342.221252,700.672852 347.352051,711.206543 
	C357.928894,732.920959 375.977600,743.672424 399.383362,746.736938 
	C433.617188,751.219177 467.839294,749.820068 502.104279,747.166565 
	C523.853088,745.482239 545.489563,742.932190 567.090027,739.978088 
	C568.521545,739.782349 570.070618,739.355103 571.308105,740.654175 
	C571.765198,742.233948 570.658936,742.787415 569.552063,743.151855 
	C547.907471,750.278748 527.012817,760.159363 504.352081,763.609253 
	C464.557129,769.667664 424.640656,772.329651 384.543701,765.194031 
	C347.829834,758.660461 324.694733,737.619385 313.775482,702.210693 
	C306.595276,678.926941 304.090393,655.016296 302.709717,630.880981 
	C300.916931,599.540955 303.469086,568.294189 304.972076,537.042725 
	C306.330658,508.793152 308.747284,480.595673 311.807068,452.473877 
	C315.172302,421.544495 319.683716,390.791107 326.114349,360.315399 
	C330.838928,337.924896 345.618866,325.167664 365.569275,316.788452 
	C387.621185,307.526550 410.696747,306.250427 434.213165,307.217255 
	C462.496368,308.380005 490.578522,312.739746 518.917236,312.574219 
	C530.223267,312.508179 541.523376,311.291565 552.823792,310.561401 
	C554.606812,310.446228 556.475281,309.671936 557.855774,311.689514 
	C557.370483,314.434601 554.905151,314.547119 552.961792,315.134491 
	C517.693481,325.793793 481.751770,330.106445 444.893677,327.614807 
	C424.199921,326.215973 403.599274,328.191681 383.478882,333.544861 
	C368.580872,337.508575 358.463013,346.927185 353.186401,361.477386 
	C348.222229,375.166046 345.505066,389.375641 343.266418,404.145111 
z"/>
<path fill="#000000" opacity="1.000000" stroke="none" 
	d="
M455.196777,383.995728 
	C437.812439,379.653442 421.237701,374.205536 405.213715,367.128540 
	C402.141632,365.771759 399.370667,363.917297 396.822571,361.761993 
	C391.941711,357.633514 392.722443,353.098236 398.811432,350.890991 
	C404.778290,348.728058 410.982361,347.454529 417.318542,346.962799 
	C435.898560,345.520935 454.402191,343.169891 472.943970,341.561493 
	C504.081818,338.860352 534.979797,332.953186 566.387573,333.737305 
	C581.023743,334.102722 595.682861,334.773773 609.434570,340.821472 
	C613.617981,342.661224 617.338135,345.080322 620.413879,348.463837 
	C624.643616,353.116791 624.428833,356.731110 619.113159,360.534302 
	C611.776489,365.783447 603.661987,369.741394 595.431946,373.358154 
	C566.615906,386.021393 536.307861,391.552582 504.967041,390.935486 
	C488.313019,390.607574 471.808289,388.152527 455.196777,383.995728 
z"/>
<path fill="#000000" opacity="1.000000" stroke="none" 
	d="
M105.514450,391.427429 
	C96.743538,421.464294 91.175507,451.639130 89.077858,482.502319 
	C85.680946,532.482178 90.303581,581.576538 104.170021,629.755981 
	C104.446136,630.715332 104.668823,631.690186 104.912621,632.658752 
	C105.609657,635.427795 105.080177,637.856567 102.130630,638.708435 
	C99.088364,639.587158 97.502068,637.584229 96.698036,634.923218 
	C93.566628,624.559570 90.995064,614.053223 88.748314,603.464905 
	C82.124046,572.246826 78.562531,540.650879 79.211357,508.771881 
	C81.365242,402.944885 116.158791,309.347595 185.322052,228.851959 
	C187.167389,226.704254 189.011902,224.553070 190.933411,222.474319 
	C192.982025,220.258011 195.427628,219.285431 197.913086,221.587143 
	C200.347824,223.841873 199.057175,226.234970 197.336899,228.209717 
	C190.223343,236.375687 183.182922,244.594437 176.566132,253.177582 
	C144.482544,294.795685 120.799156,340.725220 105.514450,391.427429 
z"/>
<path fill="#000000" opacity="1.000000" stroke="none" 
	d="
M946.471924,501.589844 
	C947.798096,514.551514 946.673828,527.044189 945.968140,539.484802 
	C944.639038,562.917358 941.296814,586.127747 936.139893,609.044312 
	C934.642944,615.696594 932.865356,622.287476 931.123047,628.881958 
	C930.360901,631.766724 929.012329,634.662659 925.402588,633.708435 
	C921.517273,632.681274 921.870605,629.460510 922.762878,626.348938 
	C928.828796,605.194214 932.998169,583.628113 935.432800,561.799011 
	C938.371033,535.454468 938.762756,509.003601 936.960754,482.519012 
	C934.976440,453.353302 929.916382,424.757355 921.944458,396.651764 
	C904.905579,336.580048 875.760498,283.038940 835.158264,235.673782 
	C833.098511,233.270874 830.991394,230.908493 828.899048,228.533630 
	C826.982605,226.358444 825.648132,223.927155 828.152344,221.511185 
	C830.892273,218.867783 833.301025,220.440247 835.399841,222.767426 
	C847.239990,235.896042 858.224487,249.707062 868.362854,264.187988 
	C902.731628,313.278046 925.987183,367.176788 937.973450,425.883240 
	C943.038696,450.691772 946.106323,475.762604 946.471924,501.589844 
z"/>
<path fill="#000000" opacity="1.000000" stroke="none" 
	d="
M465.864258,923.541992 
	C456.363647,937.408142 447.106171,951.252991 437.809265,965.071350 
	C436.826538,966.531860 436.161530,968.709412 433.942047,968.519348 
	C431.307678,968.293762 431.372833,965.749878 430.874908,963.939209 
	C426.287689,947.258057 421.774689,930.556458 417.223938,913.865173 
	C417.201691,913.783569 416.949036,913.764832 416.505615,913.617798 
	C414.085480,928.203491 411.767914,942.760315 409.170166,957.266846 
	C408.718658,959.788269 409.854492,964.575623 405.284180,963.843933 
	C400.884155,963.139587 403.616974,959.018555 403.967468,956.747986 
	C406.681519,939.166626 409.721741,921.635193 412.717285,904.098022 
	C413.102173,901.844788 412.372528,898.377380 416.253693,898.760254 
	C419.671814,899.097473 423.800568,898.568481 425.084625,903.432373 
	C427.760437,913.568359 430.565430,923.670410 433.345612,933.778564 
	C435.001129,939.797729 436.710388,945.802124 438.723267,952.982300 
	C442.941528,946.755432 446.480347,941.578491 449.970459,936.368896 
	C455.626740,927.926208 461.225464,919.444885 466.901367,911.015564 
	C469.212158,907.583801 474.523834,906.750244 477.822662,909.144531 
	C479.622589,910.450867 478.775513,912.099304 478.516968,913.690186 
	C476.062164,928.794006 473.645081,943.904114 471.141876,958.999939 
	C469.901703,966.478821 469.368195,973.685425 477.188538,978.388855 
	C472.229553,981.589050 463.942169,977.679871 461.668365,971.270752 
	C459.720703,965.780884 460.452179,960.076050 461.276001,954.475830 
	C462.796112,944.142151 464.480194,933.832642 465.864258,923.541992 
z"/>
<path fill="#000000" opacity="1.000000" stroke="none" 
	d="
M316.038452,889.177979 
	C313.869629,889.437622 312.066376,889.632324 310.309998,889.821960 
	C309.815491,891.174988 310.909424,891.734619 311.419708,892.468262 
	C316.260315,899.427795 316.507202,904.907410 312.188324,911.373108 
	C307.933411,917.743042 302.424347,919.908081 294.478546,918.350586 
	C283.046692,916.109802 274.019684,908.947510 264.166412,903.491516 
	C261.262390,901.883545 263.025055,899.825378 264.098511,897.988159 
	C271.235352,885.773132 278.413361,873.581970 285.512939,861.345337 
	C287.428467,858.043823 289.129791,854.617432 290.910522,851.238403 
	C293.312317,846.680786 287.577362,845.427246 286.931274,842.356018 
	C287.986359,840.633484 289.122833,840.993103 290.154510,841.626526 
	C299.928619,847.627747 310.466400,852.442383 319.288635,859.916748 
	C323.101318,863.147034 326.680145,866.787842 327.261353,872.165466 
	C328.133728,880.237244 324.464478,885.867249 316.038452,889.177979 
M282.160187,887.603516 
	C281.147247,889.326233 280.150757,891.058838 279.118683,892.770020 
	C272.909363,903.065125 273.700195,905.280090 285.257446,909.735474 
	C286.493683,910.212036 287.786041,910.572998 289.080109,910.864380 
	C294.954865,912.187256 299.767609,910.142273 302.699860,905.129089 
	C305.585144,900.196289 305.110565,895.466736 301.223663,890.856934 
	C298.934418,888.141968 296.010468,886.225464 292.996002,884.423218 
	C286.394073,880.476013 286.399750,880.466553 282.160187,887.603516 
M295.061615,865.499268 
	C294.059998,869.403320 288.034149,872.368591 291.113007,876.559326 
	C293.576324,879.912292 298.377014,881.625916 302.868927,882.555176 
	C303.030701,882.588623 303.197327,882.599670 303.362030,882.617920 
	C308.385101,883.175964 312.495056,881.660706 315.459229,877.400146 
	C318.419983,873.144531 317.745239,868.989685 315.274750,864.825745 
	C313.535553,861.894409 311.042908,859.752319 308.212219,857.952454 
	C302.373444,854.239929 301.658752,854.396790 298.201141,860.150635 
	C297.261536,861.714294 296.337646,863.287292 295.061615,865.499268 
z"/>
<path fill="#000000" opacity="1.000000" stroke="none" 
	d="
M487.820679,277.770477 
	C483.434662,283.586823 478.633331,288.464722 473.338470,293.073547 
	C471.293854,290.498444 472.819458,288.924347 473.370331,287.346649 
	C476.545410,278.253784 480.694733,269.513916 482.920410,260.073578 
	C485.665680,248.429565 483.633606,238.740417 473.847992,230.617111 
	C457.292023,216.873596 455.828064,194.247330 463.026031,176.176285 
	C463.554291,174.850037 464.093109,173.357239 466.350739,172.304657 
	C467.949524,177.493042 467.393219,182.802414 468.242188,187.857498 
	C470.195892,199.490997 473.721313,210.597809 483.578430,217.712219 
	C505.766968,233.726913 501.537811,257.514160 490.323486,274.212738 
	C489.581848,275.317078 488.799408,276.394012 487.820679,277.770477 
z"/>
<path fill="#000000" opacity="1.000000" stroke="none" 
	d="
M554.237793,260.031769 
	C548.941284,270.769165 541.429749,279.141510 532.614380,286.860413 
	C530.582581,283.795776 532.423645,281.937958 533.133667,280.133606 
	C536.846252,270.698669 540.803223,261.377319 542.965271,251.393723 
	C545.196777,241.089188 543.036865,232.551743 534.799377,225.392410 
	C517.897400,210.702545 515.514648,192.214951 521.741638,171.771347 
	C522.174133,170.351364 522.844849,168.991943 523.520020,167.662872 
	C523.870239,166.973373 524.473022,166.412125 525.352112,165.298401 
	C527.071777,167.997437 527.124023,170.588394 527.225342,173.130676 
	C527.884399,189.671738 533.124573,203.851608 546.725403,214.480560 
	C560.737122,225.430511 561.504150,241.030228 556.113403,255.543076 
	C555.593140,256.943695 554.967957,258.305328 554.237793,260.031769 
z"/>
<path fill="#000000" opacity="1.000000" stroke="none" 
	d="
M640.615601,896.961975 
	C651.056152,874.020386 680.037476,871.112305 694.288086,891.380737 
	C701.667297,901.876160 705.015381,913.541321 701.419128,926.315918 
	C695.611694,946.945312 669.052063,955.010193 653.114929,940.690918 
	C640.165466,929.056091 635.537109,914.458435 640.615601,896.961975 
M653.582886,923.868530 
	C656.367432,929.202759 659.350769,934.385681 664.362122,938.024292 
	C675.543823,946.143005 690.737000,940.645203 692.274780,927.010498 
	C694.052856,911.244568 688.779297,897.219360 675.975586,887.298584 
	C665.955505,879.534668 652.600586,884.829590 649.217041,897.105042 
	C646.651733,906.411804 649.894653,914.802246 653.582886,923.868530 
z"/>
<path fill="#000000" opacity="1.000000" stroke="none" 
	d="
M720.519775,870.387207 
	C732.241943,874.446472 743.244019,879.429504 755.110352,882.829346 
	C755.259216,879.510925 753.505554,877.783630 752.368408,875.844482 
	C746.727417,866.225037 740.980591,856.667725 735.331665,847.052917 
	C734.374573,845.423828 732.695435,843.518188 735.358887,841.941162 
	C737.955017,840.403870 738.856079,842.583923 739.877563,844.297974 
	C749.847595,861.027893 759.826355,877.752625 769.758545,894.505005 
	C770.558594,895.854431 772.066162,897.390198 770.595093,898.998108 
	C769.205933,900.516541 767.452209,899.416748 765.944702,898.853210 
	C747.100830,891.810486 728.269775,884.733582 709.340393,877.629761 
	C708.550720,879.614197 709.970337,880.644531 710.654297,881.803772 
	C717.336243,893.128906 724.114136,904.397400 730.791626,915.725159 
	C731.669128,917.213867 733.547913,918.941467 732.140625,920.659058 
	C729.660461,923.686035 727.957581,921.678833 726.511169,919.239929 
	C718.699707,906.068542 710.794739,892.952087 703.058350,879.736877 
	C699.837524,874.234863 696.597473,869.304138 689.020691,872.898499 
	C688.411560,873.187500 687.777832,872.627563 687.482544,871.945312 
	C690.559204,866.462097 699.492310,863.218567 706.545715,865.337097 
	C711.158813,866.722595 715.628784,868.584534 720.519775,870.387207 
z"/>
<path fill="#000000" opacity="1.000000" stroke="none" 
	d="
M673.237976,140.398438 
	C671.957458,133.646988 670.829407,127.269539 669.679382,120.896049 
	C669.473877,119.756767 669.221680,118.621628 668.912598,117.506302 
	C668.461182,115.877335 667.248108,114.960205 665.663452,114.809792 
	C663.939270,114.646126 663.589111,116.213242 663.097778,117.403519 
	C660.812988,122.938217 658.419128,128.435364 656.372375,134.058060 
	C655.145264,137.429001 653.651367,138.385086 650.091980,136.899765 
	C646.489014,135.396286 646.350525,133.572723 647.681946,130.355927 
	C652.515869,118.676773 657.133484,106.908028 661.823669,95.169495 
	C664.013733,89.688225 667.953125,84.009308 659.881165,80.186401 
	C660.789001,78.048546 662.036499,78.393669 663.085815,78.811607 
	C671.730896,82.254982 680.699951,85.003525 688.720947,89.833206 
	C696.973450,94.802307 699.526978,100.524933 697.365906,107.962906 
	C695.367065,114.842651 690.749512,118.674835 683.686401,119.089645 
	C680.226807,119.292816 678.729980,120.443665 679.364014,123.905106 
	C680.380615,129.455917 681.472839,134.993561 682.423706,140.555466 
	C683.071533,144.344421 686.075439,146.696335 688.046875,149.682358 
	C682.487488,152.810394 676.902954,149.305389 673.237976,140.398438 
M681.948792,91.469963 
	C674.977844,88.083122 674.728577,88.174683 671.891235,95.238144 
	C670.528442,98.630875 669.362915,102.118706 667.767456,105.397713 
	C666.154175,108.712997 667.538635,110.237335 670.438721,111.485893 
	C676.580139,114.129883 683.426392,112.554832 686.473389,107.656166 
	C689.596924,102.634598 688.130859,96.732750 681.948792,91.469963 
z"/>
<path fill="#000000" opacity="1.000000" stroke="none" 
	d="
M790.637695,883.455322 
	C788.233459,883.761353 787.497009,882.035339 786.488342,880.800232 
	C777.538635,869.842102 768.725830,858.770142 759.654419,847.914246 
	C755.221252,842.608887 751.919189,834.257263 742.543701,840.378845 
	C740.898193,837.415649 743.020081,836.533386 744.294617,835.492676 
	C753.705322,827.808655 763.118286,820.125305 772.644836,812.586060 
	C780.253174,806.564697 788.006226,809.569519 790.330627,819.307129 
	C788.702942,820.887817 787.601379,819.418762 786.527710,818.538025 
	C782.585754,815.304871 778.457336,815.482849 774.571167,818.272827 
	C769.982971,821.566650 765.691772,825.272339 761.238892,828.757385 
	C759.162048,830.382996 760.020996,831.810486 761.315308,833.377747 
	C764.812744,837.612366 768.349609,841.820007 771.684875,846.180664 
	C773.535034,848.599609 775.186646,848.698486 777.454773,846.801086 
	C782.177307,842.850586 787.003967,839.023804 791.810791,835.174927 
	C793.245178,834.026428 794.736267,832.640259 796.518616,834.681152 
	C798.575806,837.036682 796.572083,838.275513 795.065002,839.515137 
	C790.438843,843.320068 785.821167,847.140808 781.070740,850.786743 
	C778.570923,852.705261 778.169617,854.303162 780.374634,856.856689 
	C785.026306,862.243347 789.400085,867.869995 794.244629,873.837585 
	C803.264709,865.018372 817.741760,860.861267 813.121338,843.378418 
	C820.559631,848.270630 821.374939,858.667603 815.805481,863.264954 
	C807.595154,870.042297 799.251160,876.657654 790.637695,883.455322 
z"/>
<path fill="#000000" opacity="1.000000" stroke="none" 
	d="
M850.520630,817.515991 
	C848.631287,811.708557 844.608154,809.727112 839.199951,810.134644 
	C832.503479,810.639221 826.258301,813.093811 819.837036,814.789490 
	C814.711243,816.142944 809.652344,817.890808 804.192566,816.196594 
	C793.677673,812.933899 788.556213,801.653748 793.476562,791.801697 
	C797.674927,783.395020 804.785461,778.377502 813.742371,776.107300 
	C819.038208,774.765137 826.376038,779.816406 829.197205,786.372559 
	C826.439636,788.352478 824.574158,785.798462 822.587219,784.883606 
	C812.718445,780.339478 801.710327,784.686462 799.024658,794.344421 
	C797.375793,800.273804 801.110718,805.535828 807.257751,805.746277 
	C812.856750,805.937988 818.019775,803.782349 823.318176,802.423096 
	C828.467957,801.101990 833.502686,799.338379 838.825073,798.714661 
	C845.645569,797.915405 850.902588,800.528015 854.648987,806.103027 
	C858.473450,811.794250 859.077698,817.979065 855.947388,824.100525 
	C851.826599,832.158997 845.188782,837.611023 836.681641,840.543457 
	C829.416748,843.047729 820.907654,838.197083 818.845093,830.517090 
	C821.855713,829.472717 823.794983,831.873047 826.050171,832.837769 
	C837.399963,837.693542 849.810547,830.192078 850.520630,817.515991 
z"/>
<path fill="#000000" opacity="1.000000" stroke="none" 
	d="
M191.621964,792.922974 
	C190.781128,783.858154 194.814651,778.016968 202.305328,774.519165 
	C208.767700,771.501587 216.590210,773.761902 222.695541,779.914551 
	C226.142471,783.388245 228.792435,787.393616 230.477539,791.993652 
	C233.600327,800.518188 229.586334,808.378906 220.475952,811.525696 
	C218.799362,808.807007 221.348389,807.228638 222.306030,805.378113 
	C226.383850,797.498230 225.585739,790.369995 219.506699,784.392395 
	C216.265793,781.205505 212.487457,779.108765 207.817810,781.186951 
	C202.933670,783.360596 201.709198,787.626892 202.464630,792.421753 
	C203.368774,798.160522 204.684708,803.836731 205.897964,809.523804 
	C206.696884,813.268677 206.972458,817.077881 207.507080,820.845642 
	C209.082886,831.951355 196.055786,841.448303 184.594223,837.597107 
	C175.155533,834.425659 165.646301,821.737427 165.653168,812.108276 
	C165.657104,806.587036 170.885468,800.259277 176.828140,798.661011 
	C178.301422,801.204712 175.973022,802.641663 175.028503,804.356384 
	C169.939697,813.594360 172.070618,822.939514 180.750519,828.888123 
	C183.829605,830.998352 187.205841,831.856079 190.662796,830.275208 
	C194.325912,828.600159 195.902374,825.403259 196.047440,821.394714 
	C196.285828,814.807495 194.356186,808.573914 193.111542,802.223511 
	C192.537369,799.294006 192.117126,796.334412 191.621964,792.922974 
z"/>
<path fill="#000000" opacity="1.000000" stroke="none" 
	d="
M820.396973,177.871979 
	C822.772278,191.472473 813.939636,206.647415 800.013550,213.413635 
	C788.871765,218.827042 776.729797,216.372986 768.269165,206.837830 
	C762.329956,200.144241 760.344116,192.321274 762.428650,183.601395 
	C765.344055,171.406204 772.690125,162.688583 784.213135,158.008575 
	C799.978821,151.605423 816.552917,160.735458 820.396973,177.871979 
M791.611206,163.989273 
	C781.162903,169.267899 773.879089,177.459396 770.063782,188.453445 
	C767.832214,194.883682 768.857544,200.997498 774.283936,205.768127 
	C779.736938,210.562180 785.764343,210.649078 791.937744,207.487411 
	C801.380066,202.651566 807.770569,194.973846 811.914673,185.319855 
	C814.639587,178.972000 814.466675,172.848846 809.637512,167.616821 
	C804.883301,162.465912 798.967163,161.140350 791.611206,163.989273 
z"/>
<path fill="#000000" opacity="1.000000" stroke="none" 
	d="
M629.041565,125.395889 
	C609.783508,132.661011 591.770691,120.396973 591.550659,100.365501 
	C591.485657,94.450226 592.382568,88.793617 594.743835,83.372688 
	C600.767334,69.544243 613.850037,62.893993 627.538330,66.702507 
	C641.058350,70.464211 649.211975,83.278542 647.064819,97.983398 
	C645.357788,109.674408 640.627258,119.616989 629.041565,125.395889 
M601.018066,103.416763 
	C601.051208,104.412659 601.041138,105.412186 601.124268,106.403885 
	C601.849609,115.054939 605.709839,119.998009 613.317261,122.047997 
	C619.391113,123.684761 625.874817,120.870369 630.249390,114.355194 
	C635.694336,106.245758 638.133057,97.194412 637.616699,87.457680 
	C637.189392,79.401138 632.634583,73.268799 626.210449,71.523430 
	C619.095520,69.590393 612.669983,72.284416 607.920715,79.431396 
	C603.294739,86.392906 601.205505,94.169739 601.018066,103.416763 
z"/>
<path fill="#000000" opacity="1.000000" stroke="none" 
	d="
M511.041748,957.254883 
	C497.072418,957.405701 500.342377,956.004944 495.309601,967.589478 
	C494.513947,969.420898 493.897156,971.333313 493.043793,973.135437 
	C491.511292,976.371765 491.441193,976.357239 487.244659,975.466614 
	C486.396698,973.908508 487.315399,972.551392 487.853119,971.218140 
	C495.572144,952.079590 503.312805,932.949707 511.103180,913.840149 
	C511.821838,912.077271 512.138062,909.714355 514.693420,909.530945 
	C517.619385,909.320984 518.035828,911.908447 518.849731,913.786926 
	C524.076843,925.850769 528.926941,938.087646 534.483704,949.995728 
	C538.488831,958.578796 539.567932,969.327881 550.550171,973.031799 
	C549.251892,976.151306 546.974121,975.913208 544.872375,975.767700 
	C537.374695,975.248474 531.530029,971.783508 529.300354,964.532410 
	C527.338989,958.153992 523.660645,956.193604 517.518860,957.150452 
	C515.565308,957.454834 513.529602,957.232117 511.041748,957.254883 
M506.153809,951.813416 
	C511.516602,951.480103 516.961975,952.251221 522.347900,951.196350 
	C521.176208,945.526550 514.596863,930.689392 511.670868,927.087769 
	C508.639374,934.461304 505.718567,941.659973 502.715698,948.824280 
	C501.465393,951.807373 503.358826,951.800354 506.153809,951.813416 
z"/>
<path fill="#000000" opacity="1.000000" stroke="none" 
	d="
M261.875916,866.852661 
	C258.605743,870.888062 255.291290,874.364746 251.452316,877.347595 
	C245.188950,882.214050 238.423553,882.903687 231.290939,879.746765 
	C224.921875,876.927979 219.709824,872.516602 215.572495,866.964600 
	C209.742981,859.141846 210.678741,851.046753 215.371964,843.132507 
	C220.915787,833.783813 228.565536,826.017883 235.116989,817.423096 
	C236.024323,816.232788 236.988205,815.085754 237.914993,813.910095 
	C240.559326,810.555725 241.726303,807.223816 237.850693,803.887512 
	C237.208130,803.334473 236.857635,802.552307 237.706711,800.912170 
	C242.387054,802.074158 245.571625,805.533142 248.457718,809.100769 
	C250.990295,812.231384 249.541534,815.546997 247.432526,818.271729 
	C241.118851,826.428528 234.620453,834.442200 228.220016,842.532166 
	C226.879807,844.226074 225.544540,845.940186 224.386490,847.759277 
	C216.884781,859.543152 221.064117,870.963257 234.513565,875.203186 
	C239.192780,876.678284 243.658752,876.066650 247.779449,873.078796 
	C253.674484,868.804321 257.874420,862.978149 262.421722,857.474182 
	C267.720886,851.060181 272.872070,844.524048 278.118134,838.065796 
	C279.319611,836.586731 280.392578,834.265503 282.838257,836.227356 
	C285.427399,838.304321 283.451416,840.028748 282.122772,841.686523 
	C275.463623,849.995605 268.784088,858.288391 261.875916,866.852661 
z"/>
<path fill="#000000" opacity="1.000000" stroke="none" 
	d="
M548.805420,936.012695 
	C549.793945,922.603088 554.051697,911.349426 566.334473,905.074463 
	C575.547607,900.367798 585.294617,900.344666 594.864624,904.214233 
	C601.114441,906.741272 604.132507,913.562927 603.085815,921.716736 
	C600.425415,922.672729 600.115540,920.362305 599.324219,918.895508 
	C593.807861,908.669312 587.458313,905.372131 577.010315,907.379395 
	C567.663635,909.174988 560.975647,916.890747 560.145813,927.115173 
	C559.493347,935.154724 560.163391,943.056152 563.231323,950.642456 
	C566.804688,959.478577 572.780151,965.902283 582.585449,966.443726 
	C592.229675,966.976318 599.983826,962.699402 604.747437,953.880371 
	C605.142944,953.148193 605.510071,952.396606 605.959595,951.698608 
	C606.592834,950.715332 607.269775,949.588135 608.698120,950.157532 
	C610.352417,950.817200 610.184631,952.153748 609.649597,953.501038 
	C607.381104,959.213013 603.989990,964.049011 598.654114,967.304932 
	C578.104980,979.844360 553.291199,968.216736 549.737732,944.379150 
	C549.346191,941.752869 549.112671,939.102966 548.805420,936.012695 
z"/>
<path fill="#000000" opacity="1.000000" stroke="none" 
	d="
M350.058105,83.957275 
	C356.222137,81.730583 361.984314,79.539749 367.820343,77.567429 
	C376.313660,74.697060 381.374023,78.888664 380.838989,88.264763 
	C378.505341,89.188004 378.127014,87.024445 377.183746,85.869881 
	C374.703339,82.833809 371.676849,81.664276 367.876801,82.963646 
	C363.622437,84.418365 359.385132,85.923172 355.127869,87.369232 
	C352.815277,88.154747 351.978638,89.435326 352.938599,91.918236 
	C354.559174,96.109909 356.006256,100.372154 357.410278,104.642876 
	C358.346588,107.490913 359.933624,108.146988 362.733032,107.036797 
	C367.531036,105.134010 372.425201,103.471870 377.291718,101.744545 
	C378.864349,101.186356 380.560333,100.428345 381.430298,102.780220 
	C382.261719,105.027840 380.739349,105.741402 379.079010,106.350548 
	C374.387970,108.071625 369.724487,109.874405 364.992981,111.476151 
	C361.890564,112.526398 360.706390,114.041306 362.076935,117.414330 
	C364.258698,122.783859 366.065460,128.305756 368.287048,134.474716 
	C373.885895,132.394562 379.140778,130.486923 384.361633,128.490372 
	C390.000885,126.333786 391.482422,120.928452 392.982483,114.690620 
	C397.553101,123.033424 395.443604,129.845322 388.650391,132.383606 
	C381.005859,135.240005 373.240723,137.781921 365.649323,140.768753 
	C362.042267,142.187943 360.666046,141.043060 359.489349,137.659073 
	C355.223389,125.390297 350.693909,113.213181 346.269928,100.999290 
	C343.107971,92.269646 343.112305,92.268074 334.005371,91.356934 
	C338.703857,86.533363 344.829437,86.565567 350.058105,83.957275 
z"/>
<path fill="#000000" opacity="1.000000" stroke="none" 
	d="
M438.572784,95.743454 
	C431.191101,97.140610 431.183807,97.141853 432.337799,103.905670 
	C433.035400,107.994614 433.549744,112.130493 434.535248,116.149963 
	C435.401581,119.683212 433.530304,120.548332 430.759064,121.052643 
	C427.912598,121.570648 426.082855,121.121239 425.487488,117.674339 
	C423.143616,104.105225 420.420380,90.601028 418.134796,77.022774 
	C417.197571,71.454987 415.552185,67.092873 408.371277,67.887512 
	C409.001862,66.537743 409.130493,65.805763 409.401154,65.748817 
	C420.687164,63.374081 431.795013,59.305775 443.619232,61.571049 
	C451.307129,63.043896 454.848175,66.986214 456.149261,75.026375 
	C457.405060,82.786346 454.718964,88.797829 448.334747,92.392014 
	C445.414978,94.035774 442.294800,95.148376 438.572784,95.743454 
M434.192993,65.564949 
	C426.182098,66.321632 425.822601,66.763000 427.136475,74.597572 
	C427.793518,78.515739 428.506256,82.424850 429.224945,86.332336 
	C430.250610,91.908379 432.508118,93.113861 437.866791,90.983719 
	C443.105347,88.901314 446.836029,83.620331 446.507843,78.751892 
	C446.037323,71.772537 442.638397,67.950912 434.192993,65.564949 
z"/>
<path fill="#000000" opacity="1.000000" stroke="none" 
	d="
M280.526733,139.431976 
	C287.959564,144.521118 295.159882,149.315323 302.200409,154.333694 
	C307.208801,157.903580 312.155365,161.362015 319.246490,159.286087 
	C316.718445,165.452866 309.476105,167.931351 303.197937,165.727951 
	C300.342560,164.725830 297.744354,163.189453 295.502289,161.191681 
	C293.661621,159.551575 292.138031,159.696777 290.207916,161.030899 
	C285.557556,164.245300 280.819489,167.335876 276.060303,170.388245 
	C274.141205,171.619095 273.385864,172.996536 273.986420,175.368576 
	C274.881104,178.902283 275.424377,182.527481 276.056030,186.124481 
	C276.544098,188.903671 276.037842,191.056122 271.940674,191.267563 
	C269.886780,180.108627 267.831024,169.054047 265.822906,157.990784 
	C264.399628,150.149475 263.000427,142.303238 261.683014,134.443680 
	C261.374725,132.604523 260.139984,130.395248 262.565277,129.060028 
	C264.800507,127.829437 266.306274,129.678345 267.896362,130.747650 
	C272.036102,133.531586 276.119781,136.398880 280.526733,139.431976 
M271.255920,160.217117 
	C271.502197,162.148270 271.477722,164.166260 273.184326,166.026611 
	C278.117126,163.154327 282.974731,160.262329 287.864532,156.165329 
	C281.229340,151.696442 275.278137,147.688232 268.266785,142.965973 
	C269.388855,149.346268 270.273926,154.379059 271.255920,160.217117 
z"/>
<path fill="#000000" opacity="1.000000" stroke="none" 
	d="
M522.047241,57.778992 
	C509.020111,56.362320 500.758606,62.301880 498.625122,75.012062 
	C497.471375,81.885742 497.213257,88.982979 499.550720,95.785255 
	C504.835938,111.165733 522.042969,114.601799 532.967651,102.507088 
	C533.525024,101.890022 534.024719,101.220947 534.553223,100.577713 
	C535.478455,99.451744 536.341431,97.664581 538.085571,98.861427 
	C540.061829,100.217522 538.621033,101.795982 537.774902,103.184647 
	C529.411072,116.911385 506.799194,118.583290 495.487732,106.317123 
	C481.497375,91.145927 486.700348,63.032673 505.377747,54.743328 
	C514.992249,50.476238 524.677063,51.883556 533.474426,57.575180 
	C538.309204,60.703125 539.604614,67.635605 536.409180,75.010750 
	C533.025146,67.530457 531.214172,59.457687 522.047241,57.778992 
z"/>
<path fill="#000000" opacity="1.000000" stroke="none" 
	d="
M728.465210,177.675125 
	C718.011230,170.770813 713.806641,161.188934 716.190735,149.481552 
	C718.998840,135.692123 727.322632,125.913254 741.133850,122.243774 
	C752.933044,119.108833 762.759705,123.584862 770.403992,132.810760 
	C776.902893,140.654175 776.116516,149.046310 768.571167,154.365814 
	C766.319824,152.987289 767.657654,151.088943 768.019104,149.485306 
	C769.965881,140.847839 767.942749,135.065536 761.330322,130.802032 
	C754.034363,126.097816 746.329163,126.003098 739.891907,131.036072 
	C731.884888,137.296326 726.477844,145.424438 724.565002,155.486618 
	C721.979919,169.084961 734.936829,180.756516 748.514099,177.278549 
	C748.997253,177.154785 749.457886,176.867661 749.941406,176.833755 
	C752.060425,176.685196 755.050171,173.633179 756.029114,176.478683 
	C757.198669,179.878067 752.941101,180.110168 750.723572,180.931870 
	C742.938904,183.816589 735.663086,181.975647 728.465210,177.675125 
z"/>
<path fill="#000000" opacity="1.000000" stroke="none" 
	d="
M239.404358,208.664886 
	C256.872406,208.180878 261.043335,196.818466 261.089020,182.543167 
	C264.312286,182.459000 264.119659,184.367111 264.361145,185.949341 
	C267.229767,204.743759 248.041641,220.754089 229.476028,215.056458 
	C213.075195,210.023193 202.479309,191.172974 206.719742,174.572708 
	C209.215256,164.803406 220.629974,155.310699 230.694778,154.634644 
	C237.136612,154.201935 242.657181,158.092102 244.376907,164.321777 
	C242.333282,165.936630 240.992905,164.043747 239.555481,163.227158 
	C231.898895,158.877426 226.196838,159.161804 219.729370,164.347198 
	C213.617416,169.247543 210.788528,177.315536 213.726593,184.431122 
	C218.535233,196.076904 225.855423,205.490372 239.404358,208.664886 
z"/>
<path fill="#000000" opacity="1.000000" stroke="none" 
	d="
M325.770813,918.828735 
	C330.428680,907.554810 334.946533,896.638306 339.496857,885.735352 
	C342.692352,878.078735 342.701599,878.075378 336.916534,872.148315 
	C336.631592,871.856384 336.652130,871.266296 336.202454,869.599243 
	C341.664032,870.555664 346.183685,872.156128 349.881897,875.326416 
	C353.250000,878.213684 352.021027,882.111572 350.641907,885.532776 
	C345.416718,898.495361 340.024994,911.390747 334.710938,924.317566 
	C333.643005,926.915405 332.642517,929.541016 331.374756,932.751953 
	C336.787872,935.080078 341.907806,937.314819 347.054749,939.485596 
	C351.347412,941.296082 355.682159,943.006775 359.976837,944.812622 
	C361.682556,945.529785 363.573334,946.235291 362.413910,948.765076 
	C361.461426,950.843384 359.860962,950.558044 358.205902,949.870789 
	C346.526642,945.020569 334.866669,940.123596 323.169739,935.316406 
	C320.295471,934.135193 320.044830,932.417358 321.257568,929.800537 
	C322.865173,926.331604 324.195282,922.734192 325.770813,918.828735 
z"/>
<path fill="#000000" opacity="1.000000" stroke="none" 
	d="
M303.952698,123.029266 
	C303.414124,121.953987 303.050903,121.205521 302.669464,120.466454 
	C299.250061,113.841209 299.249115,113.841698 291.034485,113.423615 
	C290.237335,111.324165 291.994720,110.831894 293.223297,110.217712 
	C302.450470,105.605042 311.650085,100.929802 320.981018,96.534569 
	C328.224854,93.122467 334.187683,97.764023 333.677704,107.317764 
	C323.805725,95.229073 316.350525,105.627899 307.326050,108.853821 
	C310.584351,115.439453 313.560455,121.454720 316.770233,127.942322 
	C321.346069,125.691360 325.289764,123.604034 329.364014,121.813759 
	C331.203125,121.005600 333.628662,118.238495 335.192139,121.776108 
	C336.673004,125.126831 333.090515,125.269005 331.311707,126.325172 
	C327.494507,128.591629 323.134674,129.922134 319.339111,133.097839 
	C322.536407,139.588531 325.564240,146.039246 328.880646,152.337997 
	C330.510742,155.433945 330.410278,157.368362 326.989899,159.112762 
	C323.455505,160.915329 321.981323,159.509888 320.505585,156.464081 
	C315.137177,145.384201 309.595795,134.388123 303.952698,123.029266 
z"/>
<path fill="#000000" opacity="1.000000" stroke="none" 
	d="
M567.341919,57.599304 
	C575.549927,58.571667 583.316833,59.462631 591.068237,60.472504 
	C592.757446,60.692577 595.222839,60.505440 594.997986,63.206268 
	C594.736938,66.343224 592.108398,65.364174 590.307373,65.235443 
	C586.824951,64.986565 583.308777,64.700043 579.908203,63.961475 
	C576.640015,63.251678 575.433289,64.212784 575.042175,67.506706 
	C573.591064,79.728241 571.910828,91.922554 570.319153,104.127411 
	C569.996582,106.601036 569.446228,109.073822 569.422485,111.551033 
	C569.383606,115.607887 567.448181,116.728859 563.693237,116.201927 
	C559.588623,115.625946 559.868164,113.234200 560.317627,110.045341 
	C562.196411,96.715813 563.966309,83.366310 565.420715,69.985504 
	C565.709595,67.328423 567.831238,63.548416 563.122559,61.962997 
	C557.475098,60.061478 551.981567,61.296543 549.568237,65.098244 
	C548.644043,66.554131 548.850464,68.816887 545.781799,69.624268 
	C545.308228,65.774094 545.121521,62.169056 547.113403,58.828220 
	C548.885010,55.856899 551.916748,55.464203 555.040405,55.855652 
	C559.001099,56.351982 562.944458,56.985958 567.341919,57.599304 
z"/>
<path fill="#000000" opacity="1.000000" stroke="none" 
	d="
M388.006866,958.804382 
	C372.330475,954.516052 371.688751,953.437134 376.251129,938.395325 
	C380.645081,923.909058 385.260193,909.488892 389.524811,894.965210 
	C390.569611,891.406982 391.999359,890.419678 395.548676,891.595276 
	C398.772217,892.662903 400.892456,893.515137 399.522247,897.765320 
	C394.928345,912.014832 390.663940,926.370667 386.299316,940.693787 
	C385.620728,942.920654 384.992859,945.170166 384.491730,947.442383 
	C383.745605,950.825623 384.207703,953.715332 387.861725,955.324890 
	C389.642914,956.109497 391.489044,957.186584 388.006866,958.804382 
z"/>
<path fill="#000000" opacity="1.000000" stroke="none" 
	d="
M620.747070,897.547363 
	C624.657166,911.880676 628.334839,925.869019 632.208252,939.802979 
	C634.103516,946.620850 633.448914,955.750793 645.421631,954.936340 
	C641.029297,958.448975 636.486877,959.440918 631.623291,959.332703 
	C627.973450,959.251465 626.366211,956.594910 625.528992,953.630066 
	C621.508179,939.391907 617.634094,925.112305 613.716736,910.844971 
	C612.880127,907.798096 612.074036,904.742798 611.265259,901.688354 
	C610.745911,899.726685 609.985046,897.427917 612.749573,896.748779 
	C615.306030,896.120728 618.223328,893.167542 620.747070,897.547363 
z"/>
<path fill="#000000" opacity="1.000000" stroke="none" 
	d="
M712.813171,127.738205 
	C710.005859,133.268600 707.353760,138.460083 704.749268,143.675354 
	C702.125793,148.928543 697.844910,154.209366 705.386780,159.712463 
	C700.020508,160.048981 696.445740,157.555954 693.295593,154.594345 
	C690.863220,152.307541 691.673950,149.294067 692.981140,146.674347 
	C700.043945,132.519836 707.214722,118.419159 714.283569,104.267624 
	C715.877136,101.077431 717.893066,102.294540 720.062073,103.366432 
	C722.356079,104.500092 724.083679,105.654305 722.477905,108.695198 
	C719.212402,114.879181 716.140808,121.165550 712.813171,127.738205 
z"/>
<path fill="#000000" opacity="1.000000" stroke="none" 
	d="
M474.345520,65.750183 
	C475.396423,77.125816 476.339233,88.055244 477.473969,98.964714 
	C478.475433,108.593147 478.570007,108.583313 486.853210,111.878510 
	C483.206268,115.479134 478.945251,114.005630 475.203247,114.186234 
	C472.095276,114.336243 470.287476,112.157791 469.757141,109.297707 
	C468.940460,104.893333 468.285767,100.445610 467.839386,95.988525 
	C466.762756,85.239136 465.742065,74.481392 464.947968,63.708645 
	C464.775146,61.363853 463.168671,58.257103 466.759338,56.755836 
	C471.143829,54.922710 473.453949,56.187729 474.066925,60.809589 
	C474.263245,62.290016 474.242401,63.799252 474.345520,65.750183 
z"/>
<path fill="#000000" opacity="1.000000" stroke="none" 
	d="
M635.362366,53.475792 
	C637.174927,53.878716 638.680847,54.063686 639.834167,55.835651 
	C637.179932,59.309429 633.456543,61.728752 629.960632,64.373947 
	C628.942383,65.144432 627.748169,64.894386 626.731018,64.146515 
	C625.511902,63.250134 625.654297,61.934933 626.456848,61.105309 
	C629.122620,58.349655 628.585022,51.987152 635.362366,53.475792 
z"/>
<path fill="#000000" opacity="1.000000" stroke="none" 
	d="
M356.637177,79.507263 
	C351.941711,76.597710 353.464294,72.014214 354.179657,68.446838 
	C354.818695,65.260101 358.704468,64.870003 362.736877,64.752266 
	C360.796112,70.035980 361.325867,75.559700 356.637177,79.507263 
z"/>
</svg>